<svg width="16" height="16" viewBox="0 0 16 16" fill="none" xmlns="http://www.w3.org/2000/svg">
<g clip-path="url(#clip0_508_13)">
<path d="M5.84375 0L5.09375 2.96875L2.15625 2.15625L2.96875 5.09375L0 5.84375L2.1875 8L0 10.1562L2.96875 10.9062L2.15625 13.8438L5.09375 13.0312L5.84375 16L8 13.8125L10.1562 16L10.9062 13.0312L13.8438 13.8438L13.0312 10.9062L16 10.1562L13.8125 8L16 5.84375L13.0312 5.09375L13.8438 2.15625L10.9062 2.96875L10.1562 0L8 2.1875L5.84375 0ZM8 3C10.7614 3 13 5.23858 13 8C13 10.7614 10.7614 13 8 13V3Z" fill="#16171D"/>
</g>
<defs>
<clipPath id="clip0_508_13">
<rect width="16" height="16" fill="white"/>
</clipPath>
</defs>
</svg>
