<svg width="16" height="16" viewBox="0 0 16 16" fill="none" xmlns="http://www.w3.org/2000/svg">
<g clip-path="url(#clip0_510_11)">
<path d="M15.9029 2.50213C15.9029 1.89798 15.4132 1.40818 14.809 1.40818H12.9592V0.446286C12.9592 0.199867 12.7593 0 12.5129 0H11.549C11.3036 0 11.1022 0.199867 11.1022 0.446286V1.40868H4.95968V0.446286C4.95968 0.199867 4.75982 0 4.5134 0H3.61378C3.36737 0 3.16751 0.199867 3.16751 0.446286V1.40868H1.18914C0.585 1.40868 0.0952148 1.89849 0.0952148 2.50264V6.40081H0.671523V14.8757C0.671523 15.4975 1.17497 16.0005 1.79631 16.0005H14.1391C14.761 16.0005 15.2639 15.4975 15.2639 14.8757V6.4003H15.905L15.9029 2.50213ZM13.4712 13.0192C13.4712 13.6411 12.9683 14.144 12.3464 14.144H3.65223C3.03089 14.144 2.52745 13.6411 2.52745 13.0192V6.4003H13.4707V13.0192H13.4712Z" fill="#16171D"/>
<path d="M5.85514 7.61572H4.06348V9.47221H5.85514V7.61572Z" fill="#16171D"/>
<path d="M8.92716 7.61572H7.1355V9.47221H8.92716V7.61572Z" fill="#16171D"/>
<path d="M11.9987 7.61572H10.2065V9.47221H11.9987V7.61572Z" fill="#16171D"/>
<path d="M5.85514 10.8799H4.06348V12.7359H5.85514V10.8799Z" fill="#16171D"/>
<path d="M8.92716 10.8799H7.1355V12.7359H8.92716V10.8799Z" fill="#16171D"/>
<path d="M11.9987 10.8799H10.2065V12.7359H11.9987V10.8799Z" fill="#16171D"/>
</g>
<defs>
<clipPath id="clip0_510_11">
<rect width="16" height="16" fill="white"/>
</clipPath>
</defs>
</svg>
