<svg width="16" height="16" viewBox="0 0 16 16" fill="none" xmlns="http://www.w3.org/2000/svg">
<path d="M7.99992 1.33337C11.6999 1.33337 14.6666 4.33337 14.6666 8.00004C14.6666 11.6667 11.6666 14.6667 7.99992 14.6667C4.33325 14.6667 1.33325 11.6667 1.33325 8.00004C1.33325 4.33337 4.33325 1.33337 7.99992 1.33337ZM7.99992 2.66671C5.06992 2.66671 2.66659 5.07004 2.66659 8.00004C2.66659 10.93 5.06992 13.3334 7.99992 13.3334C10.9299 13.3334 13.3333 10.93 13.3333 8.00004C13.3333 5.05737 10.9513 2.66671 7.99992 2.66671ZM10.4999 11.1C8.93325 10.1334 6.96658 9.93337 4.63325 10.4667C4.39992 10.5334 4.19992 10.3667 4.13325 10.1667C4.06658 9.93337 4.23325 9.73337 4.43325 9.66671C6.96658 9.10004 9.16659 9.33337 10.8999 10.4C11.1333 10.5 11.1666 10.7667 11.0666 10.9667C10.9333 11.1667 10.6999 11.2334 10.4999 11.1V11.1ZM11.1666 9.30004C9.36658 8.20004 6.63325 7.86671 4.53325 8.53337C4.26659 8.60004 3.96659 8.46671 3.89992 8.20004C3.83325 7.93337 3.96659 7.63337 4.23325 7.56671C6.66658 6.83337 9.66659 7.20004 11.7333 8.46671C11.9333 8.56671 12.0333 8.90004 11.8666 9.13337C11.6999 9.36671 11.3999 9.46671 11.1666 9.30004ZM4.19992 6.50004C3.86659 6.60004 3.53325 6.40004 3.43325 6.10004C3.33325 5.76671 3.53325 5.43337 3.83325 5.33337C6.19992 4.63337 10.0999 4.76671 12.5666 6.23337C12.8666 6.40004 12.9666 6.80004 12.7999 7.10004C12.6333 7.33337 12.2333 7.43337 11.9333 7.26671C9.79992 6.00004 6.23325 5.86671 4.19992 6.50004Z" fill="#16171D"/>
</svg>
