<svg width="16" height="16" viewBox="0 0 16 16" fill="none" xmlns="http://www.w3.org/2000/svg">
<g clip-path="url(#clip0_511_36)">
<path d="M8 0C6.41775 0 4.87103 0.469192 3.55544 1.34824C2.23985 2.22729 1.21447 3.47672 0.608967 4.93853C0.00346625 6.40034 -0.15496 8.00887 0.153721 9.56072C0.462403 11.1126 1.22433 12.538 2.34315 13.6569C3.46197 14.7757 4.88743 15.5376 6.43928 15.8463C7.99113 16.155 9.59966 15.9965 11.0615 15.391C12.5233 14.7855 13.7727 13.7602 14.6518 12.4446C15.5308 11.129 16 9.58225 16 8C16 5.87827 15.1571 3.84344 13.6569 2.34315C12.1566 0.842855 10.1217 0 8 0V0ZM8 14C6.81332 14 5.65328 13.6481 4.66658 12.9888C3.67989 12.3295 2.91085 11.3925 2.45673 10.2961C2.0026 9.19974 1.88378 7.99334 2.11529 6.82946C2.3468 5.66557 2.91825 4.59647 3.75736 3.75736C4.59648 2.91824 5.66558 2.3468 6.82946 2.11529C7.99335 1.88378 9.19975 2.0026 10.2961 2.45672C11.3925 2.91085 12.3295 3.67988 12.9888 4.66658C13.6481 5.65327 14 6.81331 14 8C13.9983 9.59077 13.3656 11.1159 12.2407 12.2407C11.1159 13.3656 9.59077 13.9983 8 14V14Z" fill="#16171D"/>
<path d="M10.01 8H8.5C8.36739 8 8.24021 7.94732 8.14645 7.85355C8.05268 7.75979 8 7.63261 8 7.5V5.99C8.00007 5.85997 7.9745 5.73121 7.92477 5.61107C7.87505 5.49092 7.80213 5.38176 7.71018 5.28982C7.61824 5.19787 7.50908 5.12495 7.38893 5.07523C7.26879 5.0255 7.14003 4.99993 7.01 5H6.99C6.85997 4.99993 6.73121 5.0255 6.61107 5.07523C6.49092 5.12495 6.38176 5.19787 6.28982 5.28982C6.19787 5.38176 6.12495 5.49092 6.07523 5.61107C6.0255 5.73121 5.99993 5.85997 6 5.99V9.01C5.99993 9.14003 6.0255 9.26879 6.07523 9.38893C6.12495 9.50908 6.19787 9.61824 6.28982 9.71018C6.38176 9.80213 6.49092 9.87505 6.61107 9.92477C6.73121 9.9745 6.85997 10.0001 6.99 10H10.01C10.14 10.0001 10.2688 9.9745 10.3889 9.92477C10.5091 9.87505 10.6182 9.80213 10.7102 9.71018C10.8021 9.61824 10.875 9.50908 10.9248 9.38893C10.9745 9.26879 11.0001 9.14003 11 9.01V8.99C11.0001 8.85997 10.9745 8.73121 10.9248 8.61107C10.875 8.49092 10.8021 8.38176 10.7102 8.28982C10.6182 8.19787 10.5091 8.12495 10.3889 8.07523C10.2688 8.0255 10.14 7.99993 10.01 8V8Z" fill="#16171D"/>
</g>
<defs>
<clipPath id="clip0_511_36">
<rect width="16" height="16" fill="white"/>
</clipPath>
</defs>
</svg>
