<svg width="19" height="18" viewBox="0 0 19 18" fill="none" xmlns="http://www.w3.org/2000/svg">
<path d="M9.86883 0.682739C9.86883 0.682739 7.42724 1.92555 4.5127 6.05911V11.1344C7.28455 14.8207 9.78301 16.4247 9.78301 16.4247C10.7275 16.4247 10.8113 0.682739 9.8687 0.682739H9.86883Z" fill="#16171D" stroke="#16171D" stroke-width="2.00001"/>
<path d="M3.86257 6.05994H1.39239C1.24687 6.05994 1.12891 6.15809 1.12891 6.27918V10.8285C1.12891 10.9496 1.24687 11.0477 1.39239 11.0477H3.86257C4.00809 11.0477 4.12606 10.9496 4.12606 10.8285V6.27918C4.12606 6.15809 4.00809 6.05994 3.86257 6.05994Z" fill="#16171D" stroke="#16171D" stroke-width="2.00001" stroke-linecap="round" stroke-linejoin="round"/>
<path d="M15.1758 2.03319C16.3683 4.42889 16.8232 5.4818 16.8232 8.36448C16.8232 11.2459 16.3683 12.6366 15.1758 15.0332C17.1647 12.976 17.5197 11.4782 17.5197 8.36448C17.5197 5.25016 17.1647 4.09124 15.1758 2.03319ZM13 3.5C13.7507 5.00681 14.1758 6.71819 14.1758 8.53307C14.1758 10.3468 13.7507 12.062 13 13.569C14.2519 12.275 14.6758 8.53307 14.6758 8.53307C14.6758 6.57201 14.2519 4.79377 13 3.5Z" fill="#16171D" stroke="#16171D" stroke-width="1.52876"/>
</svg>
